<svg viewBox="0 0 32 32" xmlns="http://www.w3.org/2000/svg">
  <defs>
    <!-- Sun gradient -->
    <radialGradient id="sunGradient" cx="50%" cy="50%" r="50%">
      <stop offset="0%" style="stop-color:#fff700;stop-opacity:1" />
      <stop offset="60%" style="stop-color:#ff8c00;stop-opacity:1" />
      <stop offset="100%" style="stop-color:#ff1744;stop-opacity:1" />
    </radialGradient>
  </defs>
  
  <!-- Sun -->
  <circle cx="16" cy="8" r="6" fill="url(#sunGradient)"/>
  
  <!-- Sun horizontal lines -->
  <g opacity="0.9">
    <line x1="12" y1="6" x2="20" y2="6" stroke="#ff1744" stroke-width="0.8"/>
    <line x1="12.5" y1="7" x2="19.5" y2="7" stroke="#ff1744" stroke-width="0.8"/>
    <line x1="11" y1="8" x2="21" y2="8" stroke="#ff1744" stroke-width="0.8"/>
    <line x1="12.5" y1="9" x2="19.5" y2="9" stroke="#ff1744" stroke-width="0.8"/>
    <line x1="12" y1="10" x2="20" y2="10" stroke="#ff1744" stroke-width="0.8"/>
  </g>
  
  <!-- Simple mountain silhouettes -->
  <polygon points="0,20 8,16 16,18 24,14 32,16 32,32 0,32" fill="#ff1744" opacity="0.8"/>
  
  <!-- Simple perspective grid -->
  <g stroke="#ff1744" stroke-width="1" opacity="0.7">
    <!-- Horizontal lines -->
    <line x1="0" y1="20" x2="32" y2="20"/>
    <line x1="2" y1="22" x2="30" y2="22"/>
    <line x1="4" y1="24" x2="28" y2="24"/>
    <line x1="6" y1="26" x2="26" y2="26"/>
    <line x1="8" y1="28" x2="24" y2="28"/>
    <line x1="12" y1="30" x2="20" y2="30"/>
    
    <!-- Key vertical perspective lines -->
    <line x1="0" y1="20" x2="16" y2="32"/>
    <line x1="8" y1="20" x2="16" y2="32"/>
    <line x1="16" y1="20" x2="16" y2="32"/>
    <line x1="24" y1="20" x2="16" y2="32"/>
    <line x1="32" y1="20" x2="16" y2="32"/>
  </g>
</svg>